Coordinates
version=1
nRows=29
nColumns=24
inDegrees=yes

Units are S.I. units (second, meters, Newtons, ...)
Angles are in degrees.

endheader
time	pelvis_tilt	pelvis_list	pelvis_rotation	pelvis_tx	pelvis_ty	pelvis_tz	hip_flexion_r	hip_adduction_r	hip_rotation_r	knee_angle_r	ankle_angle_r	subtalar_angle_r	mtp_angle_r	hip_flexion_l	hip_adduction_l	hip_rotation_l	knee_angle_l	ankle_angle_l	subtalar_angle_l	mtp_angle_l	lumbar_extension	lumbar_bending	lumbar_rotation
      1.08000000	     -7.10859458	     -1.22034360	      4.27583878	      0.15142693	      0.97634551	     -0.04716972	     24.49517126	     -5.90663295	    -14.30583615	      0.57010720	     -5.78864762	      0.00000000	      0.00000000	     -3.44665836	     -1.63501572	     -7.09492466	     -3.64959681	      7.80935498	      0.00000000	      0.00000000	     -2.07974880	      1.63273066	      2.48744224
      1.09000000	     -7.18356019	     -1.15567911	      4.44982444	      0.15226140	      0.97505230	     -0.04531640	     24.47386085	     -5.90576017	    -14.29777313	      0.43775875	     -5.79914908	      0.00000000	      0.00000000	     -3.77217320	     -1.74058218	     -7.08291781	     -3.83080615	      7.82982458	      0.00000000	      0.00000000	     -1.88841957	      1.60203861	      2.55268639
      1.10000000	     -6.93644121	     -1.16226767	      4.89776683	      0.15255262	      0.97412798	     -0.04380991	     24.44647330	     -6.00824781	    -14.69741715	     -0.66735234	     -5.23053354	      0.00000000	      0.00000000	     -4.11172983	     -1.99437134	     -6.55753508	     -4.63791624	      8.67007682	      0.00000000	      0.00000000	     -2.16712702	      1.71832262	      2.33189939
      1.11000000	     -6.87833468	     -1.14096222	      5.14392780	      0.15331039	      0.97310898	     -0.04189655	     24.47044791	     -6.04087290	    -14.75203543	     -1.49728488	     -5.46380540	      0.00000000	      0.00000000	     -4.45861698	     -2.19053019	     -6.37511357	     -5.03553375	      8.79710450	      0.00000000	      0.00000000	     -2.15127468	      1.76960874	      2.32570482
      1.12000000	     -6.76421602	     -1.10639453	      5.40504817	      0.15412834	      0.97223261	     -0.03992164	     24.47565310	     -6.09696837	    -14.90369435	     -2.51036513	     -5.71342920	      0.00000000	      0.00000000	     -4.79278877	     -2.39400507	     -6.11142877	     -5.60416023	      9.03195514	      0.00000000	      0.00000000	     -2.20040353	      1.81600899	      2.32626628
      1.13000000	     -6.64994844	     -1.04501110	      5.86043388	      0.15480466	      0.97148252	     -0.03802663	     24.46396108	     -6.25977905	    -15.28665628	     -3.62854134	     -5.83603980	      0.00000000	      0.00000000	     -4.89219136	     -2.61288344	     -5.60501674	     -6.61511149	      9.67415265	      0.00000000	      0.00000000	     -2.26615825	      1.82598677	      2.12624835
      1.14000000	     -6.56000341	     -1.02387939	      6.08222800	      0.15574752	      0.97091984	     -0.03581620	     24.49992520	     -6.29913055	    -15.34278732	     -4.76320530	     -6.28658192	      0.00000000	      0.00000000	     -5.12380742	     -2.85201378	     -5.33121453	     -7.32476845	      9.73010912	      0.00000000	      0.00000000	     -2.26982241	      1.88891436	      2.14626067
      1.15000000	     -6.44896819	     -1.03780110	      6.33151767	      0.15676830	      0.97059661	     -0.03336236	     24.47891911	     -6.29826802	    -15.23859327	     -5.90372068	     -6.74012187	      0.00000000	      0.00000000	     -5.37179876	     -3.15827232	     -5.10007890	     -7.98254411	      9.62850421	      0.00000000	      0.00000000	     -2.29500771	      1.96358239	      2.14528621
      1.16000000	     -6.31416220	     -1.03914086	      6.52288728	      0.15777939	      0.97054236	     -0.03081179	     24.43285144	     -6.28432685	    -15.16938365	     -7.04469757	     -7.12863458	      0.00000000	      0.00000000	     -5.55684312	     -3.45424068	     -4.82962631	     -8.83614433	      9.48982599	      0.00000000	      0.00000000	     -2.35192568	      2.03520223	      2.19738265
      1.17000000	     -6.17355256	     -1.04500771	      6.71620107	      0.15877864	      0.97074512	     -0.02822292	     24.36556918	     -6.25959864	    -15.08807359	     -8.19351733	     -7.40453580	      0.00000000	      0.00000000	     -5.63213459	     -3.76304198	     -4.54439344	     -9.90418498	      9.30774118	      0.00000000	      0.00000000	     -2.43001754	      2.11196881	      2.22182124
      1.18000000	     -6.38940784	     -1.06555721	      7.09647160	      0.15948290	      0.97062430	     -0.02568474	     24.67155510	     -6.33909040	    -15.19370749	     -9.41869431	     -7.23247689	      0.00000000	      0.00000000	     -4.97312038	     -4.08412350	     -4.03367860	    -11.63275211	      9.52140969	      0.00000000	      0.00000000	     -2.09771974	      2.13260021	      2.03620431
      1.19000000	     -6.24057787	     -1.10232412	      7.18889398	      0.16061347	      0.97135717	     -0.02277785	     24.48585845	     -6.19800262	    -14.98723598	    -10.37059817	     -7.37771080	      0.00000000	      0.00000000	     -5.03594421	     -4.43016958	     -3.74310229	    -12.68025144	      8.92140513	      0.00000000	      0.00000000	     -2.16698942	      2.22156084	      2.15545069
      1.20000000	     -6.09306642	     -1.13510989	      7.33156636	      0.16163795	      0.97229535	     -0.01981000	     24.24767813	     -6.05971966	    -14.81827986	    -11.26599723	     -7.23938457	      0.00000000	      0.00000000	     -4.90209214	     -4.79473222	     -3.50820027	    -14.06929302	      8.23082678	      0.00000000	      0.00000000	     -2.24980032	      2.28971044	      2.20103263
      1.21000000	     -5.98654064	     -1.17006104	      7.47521168	      0.16265224	      0.97336161	     -0.01680974	     23.98711836	     -5.89495339	    -14.69587404	    -12.05325995	     -6.91723038	      0.00000000	      0.00000000	     -4.62955602	     -5.15626845	     -3.22258456	    -15.61205482	      7.44887129	      0.00000000	      0.00000000	     -2.27961166	      2.34679429	      2.25009647
      1.22000000	     -6.27527450	     -1.28449115	      7.85607376	      0.16340603	      0.97392160	     -0.01399258	     24.12869833	     -5.80141602	    -14.89487871	    -12.94127910	     -6.04384046	      0.00000000	      0.00000000	     -3.63120456	     -5.57510135	     -2.67300450	    -17.62673760	      6.92667385	      0.00000000	      0.00000000	     -1.83344898	      2.40731552	      2.02332637
      1.23000000	     -6.15917558	     -1.23338695	      7.86455552	      0.16441157	      0.97533490	     -0.01090470	     23.68458742	     -5.62202736	    -14.74061641	    -13.36499798	     -5.81691025	      0.00000000	      0.00000000	     -3.32245191	     -5.81541045	     -2.37541496	    -19.20569929	      5.76658033	      0.00000000	      0.00000000	     -1.88504780	      2.36460466	      2.24670608
      1.24000000	     -6.35402706	     -1.30773913	      8.25762864	      0.16517981	      0.97630895	     -0.00806954	     23.52980549	     -5.49452145	    -14.95862641	    -13.86994783	     -5.02487520	      0.00000000	      0.00000000	     -2.33580872	     -6.20275171	     -1.91890705	    -21.23777609	      4.57018730	      0.00000000	      0.00000000	     -1.54639319	      2.37860487	      2.00944941
      1.25000000	     -6.34901182	     -1.28271036	      8.45377771	      0.16600201	      0.97765898	     -0.00513346	     23.07239580	     -5.33502403	    -15.01673896	    -14.11773823	     -4.47745557	      0.00000000	      0.00000000	     -1.65449371	     -6.48022312	     -1.61123531	    -23.10148019	      3.13811140	      0.00000000	      0.00000000	     -1.46485993	      2.32577003	      2.05824006
      1.26000000	     -6.28299447	     -1.18976199	      8.60823999	      0.16672044	      0.97911076	     -0.00218002	     22.49411693	     -5.19831700	    -15.01317387	    -14.23532717	     -4.00451313	      0.00000000	      0.00000000	     -0.97329571	     -6.68695954	     -1.37480091	    -25.06560085	      1.64474329	      0.00000000	      0.00000000	     -1.47627682	      2.20248279	      2.11535154
      1.27000000	     -6.43453737	     -1.18678404	      8.94277623	      0.16731342	      0.98021236	      0.00047004	     22.09975562	     -5.07305966	    -15.38253070	    -14.29592562	     -3.36713732	      0.00000000	      0.00000000	      0.10201673	     -6.94469444	     -0.91859835	    -27.17766757	      0.07222135	      0.00000000	      0.00000000	     -1.20678926	      2.14179934	      2.03975403
      1.28000000	     -6.53666336	     -1.10592147	      9.21515333	      0.16770855	      0.98131576	      0.00312109	     21.63592510	     -4.98839167	    -15.59512608	    -14.28027498	     -2.88989628	      0.00000000	      0.00000000	      1.18325228	     -7.11505440	     -0.61286232	    -29.38373518	     -1.44630078	      0.00000000	      0.00000000	     -1.03715866	      2.00958027	      2.05231136
      1.29000000	     -6.41595004	     -0.94788256	      9.39810007	      0.16815401	      0.98267813	      0.00576950	     20.90174722	     -4.90358525	    -15.60069019	    -14.19081864	     -2.44353140	      0.00000000	      0.00000000	      1.99371008	     -7.25434464	     -0.59233734	    -31.50976287	     -3.04314579	      0.00000000	      0.00000000	     -1.14053563	      1.84136957	      2.16180901
      1.30000000	     -6.45594621	     -0.91271618	      9.65919676	      0.16837946	      0.98372504	      0.00829412	     20.32997510	     -4.74526866	    -15.94166226	    -14.03667852	     -1.92122849	      0.00000000	      0.00000000	      3.07157393	     -7.47299183	     -0.38241615	    -33.66990492	     -4.62545047	      0.00000000	      0.00000000	     -1.05446006	      1.77515317	      2.26003586
      1.31000000	     -6.46545072	     -0.83468634	      9.90172346	      0.16848633	      0.98468323	      0.01072970	     19.73432516	     -4.62541333	    -16.16069691	    -13.88787310	     -1.48995767	      0.00000000	      0.00000000	      4.17465656	     -7.65236619	     -0.32634444	    -35.91482734	     -5.96641151	      0.00000000	      0.00000000	     -1.01766083	      1.67119391	      2.34713540
      1.32000000	     -6.53506353	     -0.80036204	     10.15855798	      0.16843068	      0.98543360	      0.01302504	     19.21600936	     -4.48617220	    -16.40011758	    -13.73668263	     -1.10041471	      0.00000000	      0.00000000	      5.40709059	     -7.85762401	     -0.31383432	    -38.21107734	     -7.04762016	      0.00000000	      0.00000000	     -0.91395365	      1.61452365	      2.44992337
      1.33000000	     -6.41666553	     -0.68230076	     10.30871247	      0.16833571	      0.98639248	      0.01534395	     18.51747675	     -4.36851356	    -16.43378123	    -13.61757485	     -0.68425945	      0.00000000	      0.00000000	      6.35516061	     -8.01019270	     -0.45881425	    -40.34055415	     -8.01879108	      0.00000000	      0.00000000	     -1.06154601	      1.50915348	      2.67771097
      1.34000000	     -6.35586976	     -0.65706321	     10.47426510	      0.16815770	      0.98715353	      0.01761041	     17.88667221	     -4.16831941	    -16.54759610	    -13.47538856	     -0.25532990	      0.00000000	      0.00000000	      7.41085665	     -8.25210716	     -0.62143529	    -42.46513056	     -8.67889787	      0.00000000	      0.00000000	     -1.11989481	      1.48407276	      2.89680487
      1.35000000	     -6.38440646	     -0.71235756	     10.61753874	      0.16791864	      0.98767204	      0.01979863	     17.35819875	     -3.89911954	    -16.70443187	    -13.29602311	      0.12322251	      0.00000000	      0.00000000	      8.59111255	     -8.56411029	     -0.86317191	    -44.58603346	     -8.90799523	      0.00000000	      0.00000000	     -1.05108477	      1.53682376	      3.13704214
      1.36000000	     -6.30112807	     -0.66153524	     10.68220383	      0.16761712	      0.98834940	      0.02196380	     16.72512375	     -3.70272184	    -16.69938799	    -13.15439790	      0.49669604	      0.00000000	      0.00000000	      9.54832906	     -8.76332487	     -1.14971085	    -46.48973274	     -8.91643239	      0.00000000	      0.00000000	     -1.14937158	      1.49034738	      3.45570764
